<mxfile host="app.diagrams.net" modified="2020-10-05T09:45:30.541Z" agent="5.0 (Windows NT 10.0; Win64; x64) AppleWebKit/537.36 (KHTML, like Gecko) Chrome/85.0.4183.121 Safari/537.36" etag="gOYm_Ai7MGZ8bDwchZ-5" version="13.7.7" type="github">
  <diagram id="C5RBs43oDa-KdzZeNtuy" name="Page-1">
    <mxGraphModel dx="2001" dy="740" grid="1" gridSize="10" guides="1" tooltips="1" connect="1" arrows="1" fold="1" page="1" pageScale="1" pageWidth="827" pageHeight="1169" math="0" shadow="0">
      <root>
        <mxCell id="WIyWlLk6GJQsqaUBKTNV-0" />
        <mxCell id="WIyWlLk6GJQsqaUBKTNV-1" parent="WIyWlLk6GJQsqaUBKTNV-0" />
        <mxCell id="WIyWlLk6GJQsqaUBKTNV-2" value="" style="rounded=0;html=1;jettySize=auto;orthogonalLoop=1;fontSize=11;endArrow=block;endFill=0;endSize=8;strokeWidth=1;shadow=0;labelBackgroundColor=none;edgeStyle=orthogonalEdgeStyle;" parent="WIyWlLk6GJQsqaUBKTNV-1" source="WIyWlLk6GJQsqaUBKTNV-3" target="WIyWlLk6GJQsqaUBKTNV-6" edge="1">
          <mxGeometry relative="1" as="geometry" />
        </mxCell>
        <mxCell id="WIyWlLk6GJQsqaUBKTNV-3" value="&lt;font style=&quot;font-size: 17px&quot;&gt;&lt;b&gt;드론이 상공을 배회하다 &lt;br&gt;수상한 객체를 발견한다.&lt;/b&gt;&lt;/font&gt;" style="rounded=1;whiteSpace=wrap;html=1;fontSize=12;glass=0;strokeWidth=1;shadow=0;strokeColor=#d6b656;fillColor=#fff2cc;" parent="WIyWlLk6GJQsqaUBKTNV-1" vertex="1">
          <mxGeometry x="67.5" y="30" width="205" height="60" as="geometry" />
        </mxCell>
        <mxCell id="WIyWlLk6GJQsqaUBKTNV-4" value="&lt;font style=&quot;font-size: 16px&quot;&gt;Yes&lt;/font&gt;" style="rounded=0;html=1;jettySize=auto;orthogonalLoop=1;fontSize=11;endArrow=block;endFill=0;endSize=8;strokeWidth=1;shadow=0;labelBackgroundColor=none;edgeStyle=orthogonalEdgeStyle;" parent="WIyWlLk6GJQsqaUBKTNV-1" source="WIyWlLk6GJQsqaUBKTNV-6" target="WIyWlLk6GJQsqaUBKTNV-10" edge="1">
          <mxGeometry x="0.0769" y="20" relative="1" as="geometry">
            <mxPoint as="offset" />
          </mxGeometry>
        </mxCell>
        <mxCell id="WIyWlLk6GJQsqaUBKTNV-5" value="&lt;font style=&quot;font-size: 16px&quot;&gt;No&lt;/font&gt;" style="edgeStyle=orthogonalEdgeStyle;rounded=0;html=1;jettySize=auto;orthogonalLoop=1;fontSize=11;endArrow=block;endFill=0;endSize=8;strokeWidth=1;shadow=0;labelBackgroundColor=none;" parent="WIyWlLk6GJQsqaUBKTNV-1" source="WIyWlLk6GJQsqaUBKTNV-6" target="WIyWlLk6GJQsqaUBKTNV-7" edge="1">
          <mxGeometry x="-0.0769" y="10" relative="1" as="geometry">
            <mxPoint as="offset" />
          </mxGeometry>
        </mxCell>
        <mxCell id="WIyWlLk6GJQsqaUBKTNV-6" value="&lt;font style=&quot;font-size: 15px&quot;&gt;&lt;b&gt;발견된 객체가 사람인가?&lt;/b&gt;&lt;/font&gt;" style="rhombus;whiteSpace=wrap;html=1;shadow=0;fontFamily=Helvetica;fontSize=12;align=center;strokeWidth=1;spacing=6;spacingTop=-4;strokeColor=#9673a6;fillColor=#F8EBFF;" parent="WIyWlLk6GJQsqaUBKTNV-1" vertex="1">
          <mxGeometry x="50" y="145" width="240" height="90" as="geometry" />
        </mxCell>
        <mxCell id="WIyWlLk6GJQsqaUBKTNV-7" value="&lt;font style=&quot;font-size: 16px&quot;&gt;&lt;b&gt;계속 비행모드&lt;/b&gt;&lt;/font&gt;" style="rounded=1;whiteSpace=wrap;html=1;fontSize=12;glass=0;strokeWidth=1;shadow=0;fillColor=#FFF0F0;strokeColor=#B85450;" parent="WIyWlLk6GJQsqaUBKTNV-1" vertex="1">
          <mxGeometry x="420" y="170" width="120" height="40" as="geometry" />
        </mxCell>
        <mxCell id="WIyWlLk6GJQsqaUBKTNV-8" value="&lt;font style=&quot;font-size: 16px&quot;&gt;Yes&lt;/font&gt;" style="rounded=0;html=1;jettySize=auto;orthogonalLoop=1;fontSize=11;endArrow=block;endFill=0;endSize=8;strokeWidth=1;shadow=0;labelBackgroundColor=none;edgeStyle=orthogonalEdgeStyle;" parent="WIyWlLk6GJQsqaUBKTNV-1" source="WIyWlLk6GJQsqaUBKTNV-10" edge="1">
          <mxGeometry x="-0.2308" y="30" relative="1" as="geometry">
            <mxPoint as="offset" />
            <mxPoint x="170" y="460" as="targetPoint" />
          </mxGeometry>
        </mxCell>
        <mxCell id="WIyWlLk6GJQsqaUBKTNV-9" value="&lt;font style=&quot;font-size: 16px&quot;&gt;No&lt;/font&gt;" style="edgeStyle=orthogonalEdgeStyle;rounded=0;html=1;jettySize=auto;orthogonalLoop=1;fontSize=11;endArrow=block;endFill=0;endSize=8;strokeWidth=1;shadow=0;labelBackgroundColor=none;" parent="WIyWlLk6GJQsqaUBKTNV-1" source="WIyWlLk6GJQsqaUBKTNV-10" target="lihtM6gBMAiqhxx93F37-3" edge="1">
          <mxGeometry x="-0.0909" y="18" relative="1" as="geometry">
            <mxPoint y="1" as="offset" />
          </mxGeometry>
        </mxCell>
        <mxCell id="WIyWlLk6GJQsqaUBKTNV-10" value="&lt;font style=&quot;font-size: 15px&quot;&gt;&lt;b&gt;드론이 지정된 구역을 &lt;br&gt;모두 담고 있는가?&lt;/b&gt;&lt;/font&gt;" style="rhombus;whiteSpace=wrap;html=1;shadow=0;fontFamily=Helvetica;fontSize=12;align=center;strokeWidth=1;spacing=6;spacingTop=-4;strokeColor=#9673a6;fillColor=#F8EBFF;" parent="WIyWlLk6GJQsqaUBKTNV-1" vertex="1">
          <mxGeometry x="50" y="300" width="240" height="95" as="geometry" />
        </mxCell>
        <mxCell id="WIyWlLk6GJQsqaUBKTNV-12" value="&lt;font style=&quot;font-size: 15px&quot;&gt;&lt;b&gt;서버로 이미지를 전송한다&lt;/b&gt;&lt;/font&gt;" style="rounded=1;whiteSpace=wrap;html=1;fontSize=12;glass=0;strokeWidth=1;shadow=0;arcSize=11;strokeColor=#b85450;fillColor=#FFF0F0;" parent="WIyWlLk6GJQsqaUBKTNV-1" vertex="1">
          <mxGeometry x="334" y="482.5" width="202.5" height="50" as="geometry" />
        </mxCell>
        <mxCell id="lihtM6gBMAiqhxx93F37-3" value="&lt;font style=&quot;font-size: 15px&quot;&gt;&lt;b&gt;지정 구역이 전체까지 &lt;br&gt;위로 올라간다&lt;/b&gt;&lt;/font&gt;" style="rhombus;whiteSpace=wrap;html=1;shadow=0;fontFamily=Helvetica;fontSize=12;align=center;strokeWidth=1;spacing=6;spacingTop=-4;strokeColor=#9673a6;fillColor=#F8EBFF;" vertex="1" parent="WIyWlLk6GJQsqaUBKTNV-1">
          <mxGeometry x="390" y="300" width="270" height="95" as="geometry" />
        </mxCell>
        <mxCell id="lihtM6gBMAiqhxx93F37-18" value="&lt;b&gt;&lt;font style=&quot;font-size: 15px&quot;&gt;서버가 대기하고 있던 터틀봇에게 &lt;br&gt;경로와 관련된 데이터를 전송한다&lt;/font&gt;&lt;/b&gt;" style="rounded=1;whiteSpace=wrap;html=1;fontSize=12;glass=0;strokeWidth=1;shadow=0;strokeColor=#d6b656;fillColor=#fff2cc;arcSize=6;" vertex="1" parent="WIyWlLk6GJQsqaUBKTNV-1">
          <mxGeometry x="-230" y="725" width="249.25" height="70" as="geometry" />
        </mxCell>
        <mxCell id="lihtM6gBMAiqhxx93F37-19" value="&lt;font style=&quot;font-size: 16px&quot;&gt;Yes&lt;/font&gt;" style="rounded=0;html=1;jettySize=auto;orthogonalLoop=1;fontSize=11;endArrow=block;endFill=0;endSize=8;strokeWidth=1;shadow=0;labelBackgroundColor=none;edgeStyle=orthogonalEdgeStyle;" edge="1" source="lihtM6gBMAiqhxx93F37-21" target="lihtM6gBMAiqhxx93F37-25" parent="WIyWlLk6GJQsqaUBKTNV-1">
          <mxGeometry x="0.0769" y="20" relative="1" as="geometry">
            <mxPoint as="offset" />
          </mxGeometry>
        </mxCell>
        <mxCell id="lihtM6gBMAiqhxx93F37-20" value="&lt;font style=&quot;font-size: 16px&quot;&gt;No&lt;/font&gt;" style="edgeStyle=orthogonalEdgeStyle;rounded=0;html=1;jettySize=auto;orthogonalLoop=1;fontSize=11;endArrow=block;endFill=0;endSize=8;strokeWidth=1;shadow=0;labelBackgroundColor=none;" edge="1" source="lihtM6gBMAiqhxx93F37-21" target="lihtM6gBMAiqhxx93F37-22" parent="WIyWlLk6GJQsqaUBKTNV-1">
          <mxGeometry x="-0.0769" y="10" relative="1" as="geometry">
            <mxPoint as="offset" />
          </mxGeometry>
        </mxCell>
        <mxCell id="lihtM6gBMAiqhxx93F37-21" value="&lt;span style=&quot;font-size: 15px&quot;&gt;&lt;b&gt;터틀봇이 지정된 경로에 맞춰서&amp;nbsp;&lt;br&gt;이동하는가?&lt;br&gt;&lt;/b&gt;&lt;/span&gt;" style="rhombus;whiteSpace=wrap;html=1;shadow=0;fontFamily=Helvetica;fontSize=12;align=center;strokeWidth=1;spacing=6;spacingTop=-4;strokeColor=#9673a6;fillColor=#F8EBFF;" vertex="1" parent="WIyWlLk6GJQsqaUBKTNV-1">
          <mxGeometry x="62" y="725" width="272" height="105" as="geometry" />
        </mxCell>
        <mxCell id="lihtM6gBMAiqhxx93F37-22" value="&lt;span style=&quot;font-size: 16px&quot;&gt;&lt;b&gt;서버에 다시 데이터를 요청한다.&lt;/b&gt;&lt;/span&gt;" style="rounded=1;whiteSpace=wrap;html=1;fontSize=12;glass=0;strokeWidth=1;shadow=0;fillColor=#FFF0F0;strokeColor=#B85450;" vertex="1" parent="WIyWlLk6GJQsqaUBKTNV-1">
          <mxGeometry x="480" y="742.5" width="250" height="70" as="geometry" />
        </mxCell>
        <mxCell id="lihtM6gBMAiqhxx93F37-23" value="&lt;font style=&quot;font-size: 16px&quot;&gt;Yes&lt;/font&gt;" style="rounded=0;html=1;jettySize=auto;orthogonalLoop=1;fontSize=11;endArrow=block;endFill=0;endSize=8;strokeWidth=1;shadow=0;labelBackgroundColor=none;edgeStyle=orthogonalEdgeStyle;" edge="1" source="lihtM6gBMAiqhxx93F37-25" parent="WIyWlLk6GJQsqaUBKTNV-1">
          <mxGeometry x="-0.2308" y="30" relative="1" as="geometry">
            <mxPoint as="offset" />
            <mxPoint x="198" y="1050" as="targetPoint" />
          </mxGeometry>
        </mxCell>
        <mxCell id="lihtM6gBMAiqhxx93F37-24" value="&lt;font style=&quot;font-size: 16px&quot;&gt;No&lt;/font&gt;" style="edgeStyle=orthogonalEdgeStyle;rounded=0;html=1;jettySize=auto;orthogonalLoop=1;fontSize=11;endArrow=block;endFill=0;endSize=8;strokeWidth=1;shadow=0;labelBackgroundColor=none;" edge="1" source="lihtM6gBMAiqhxx93F37-25" target="lihtM6gBMAiqhxx93F37-27" parent="WIyWlLk6GJQsqaUBKTNV-1">
          <mxGeometry x="-0.0909" y="18" relative="1" as="geometry">
            <mxPoint y="1" as="offset" />
          </mxGeometry>
        </mxCell>
        <mxCell id="lihtM6gBMAiqhxx93F37-25" value="터틀봇이 목적지에 도착해서 침입자를 발견했는가?" style="rhombus;whiteSpace=wrap;html=1;shadow=0;fontFamily=Helvetica;fontSize=12;align=center;strokeWidth=1;spacing=6;spacingTop=-4;strokeColor=#9673a6;fillColor=#F8EBFF;" vertex="1" parent="WIyWlLk6GJQsqaUBKTNV-1">
          <mxGeometry x="380" y="900" width="240" height="95" as="geometry" />
        </mxCell>
        <mxCell id="lihtM6gBMAiqhxx93F37-26" value="&lt;font style=&quot;font-size: 15px&quot;&gt;&lt;b&gt;서버로 이미지를 전송한다&lt;/b&gt;&lt;/font&gt;" style="rounded=1;whiteSpace=wrap;html=1;fontSize=12;glass=0;strokeWidth=1;shadow=0;arcSize=11;strokeColor=#b85450;fillColor=#FFF0F0;" vertex="1" parent="WIyWlLk6GJQsqaUBKTNV-1">
          <mxGeometry x="98" y="1050" width="202.5" height="50" as="geometry" />
        </mxCell>
        <mxCell id="lihtM6gBMAiqhxx93F37-27" value="&lt;font style=&quot;font-size: 15px&quot;&gt;&lt;b&gt;이동경로에서 침입자를 발견했는가?&lt;/b&gt;&lt;/font&gt;" style="rhombus;whiteSpace=wrap;html=1;shadow=0;fontFamily=Helvetica;fontSize=12;align=center;strokeWidth=1;spacing=6;spacingTop=-4;strokeColor=#9673a6;fillColor=#F8EBFF;" vertex="1" parent="WIyWlLk6GJQsqaUBKTNV-1">
          <mxGeometry x="-100" y="860" width="270" height="95" as="geometry" />
        </mxCell>
        <mxCell id="lihtM6gBMAiqhxx93F37-30" value="&lt;font style=&quot;font-size: 16px&quot;&gt;&lt;b&gt;터틀봇이 경로와 관련된 topic을&amp;nbsp;&lt;br&gt;구독하고 있는가?&lt;/b&gt;&lt;/font&gt;" style="rhombus;whiteSpace=wrap;html=1;shadow=0;fontFamily=Helvetica;fontSize=12;align=center;strokeWidth=1;spacing=6;spacingTop=-4;strokeColor=#9673a6;fillColor=#F8EBFF;" vertex="1" parent="WIyWlLk6GJQsqaUBKTNV-1">
          <mxGeometry x="36.5" y="642.5" width="267" height="95" as="geometry" />
        </mxCell>
        <mxCell id="lihtM6gBMAiqhxx93F37-33" value="&lt;font style=&quot;font-size: 15px&quot;&gt;&lt;b&gt;드론이 침입자의 위치를&amp;nbsp; 좌표로 계산했는가?&lt;br&gt;&lt;/b&gt;&lt;/font&gt;" style="rhombus;whiteSpace=wrap;html=1;shadow=0;fontFamily=Helvetica;fontSize=12;align=center;strokeWidth=1;spacing=6;spacingTop=-4;strokeColor=#9673a6;fillColor=#F8EBFF;" vertex="1" parent="WIyWlLk6GJQsqaUBKTNV-1">
          <mxGeometry x="50" y="460" width="240" height="95" as="geometry" />
        </mxCell>
        <mxCell id="lihtM6gBMAiqhxx93F37-35" value="&lt;font style=&quot;font-size: 16px&quot;&gt;Yes&lt;/font&gt;" style="rounded=0;html=1;jettySize=auto;orthogonalLoop=1;fontSize=11;endArrow=block;endFill=0;endSize=8;strokeWidth=1;shadow=0;labelBackgroundColor=none;edgeStyle=orthogonalEdgeStyle;entryX=0.5;entryY=0;entryDx=0;entryDy=0;exitX=0.5;exitY=1;exitDx=0;exitDy=0;" edge="1" parent="WIyWlLk6GJQsqaUBKTNV-1" source="lihtM6gBMAiqhxx93F37-33" target="lihtM6gBMAiqhxx93F37-30">
          <mxGeometry x="-0.2308" y="30" relative="1" as="geometry">
            <mxPoint as="offset" />
            <mxPoint x="180" y="488" as="sourcePoint" />
            <mxPoint x="180" y="553" as="targetPoint" />
          </mxGeometry>
        </mxCell>
      </root>
    </mxGraphModel>
  </diagram>
</mxfile>
